Fineasz i Ferb chcą przeżyć najdłuższy dzień w życiu, co — w największym skrócie — kończy się sukcesem. ;) Są wątki romantyczne ! :D
45 minutowy odcinek specjalny w polskiej wersji kanału Disney XD. Zgrane z YT i połączone w jedną całość za pomocą Andy\\\'s FLV Joiner.


informacje techniczne:
   General
      Format : Flash Video
      File size : 256 MiB
      Duration : 44mn 29s
      Overall bit rate : 712 Kbps
      httphostheader :
   Video
      Format : AVC
      Format/Info : Advanced Video Codec
      Format profile : Main@L3.0
      Format settings, CABAC : Yes
      Format settings, ReFrames : 3 frames
      Muxing mode : Container profile=Unknown@3.0
      Duration : 44mn 29s
      Bit rate : 608 Kbps
      Width : 640 pixels
      Height : 480 pixels
      Display aspect ratio : 4:3
      Frame rate mode : Variable
      Frame rate : 25.000 fps
      Resolution : 24 bits
      Colorimetry : 4:2:0
      Scan type : Progressive
      Bits/(Pixel*Frame) : 0.079
      Stream size : 193 MiB (76%)
   Audio
      Format : AAC
      Format/Info : Advanced Audio Codec
      Format version : Version 4
      Format profile : LC
      Format settings, SBR : No
      Duration : 44mn 29s
      Bit rate : 96.7 Kbps
      Channel(s) : 2 channels
      Channel positions : L R
      Sampling rate : 44.1 KHz
      Resolution : 16 bits
      Stream size : 30.8 MiB (12%)